# xmcd
#
# Track frame offsets:
#	150
#	12565
#	48695
#	71065
#	99405
#	131120
#	153835
#
# Disc length: 2645 seconds
#
# Revision: 1
# Processed by: cddbd v1.5.1PL2 Copyright (c) Steve Scherf et al.
# Submitted via: EasyCDDAExtractor 8.0.2.1
#
DISCID=5e0a5307
DTITLE=Black Sabbath - Cornwall Coliseum St Austell 02-02-81 Disc 1
DYEAR=1981
DGENRE=Hard Rock
TTITLE0=Supertzar
TTITLE1=War Pigs
TTITLE2=Neon Knights
TTITLE3=NIB
TTITLE4=Children Of The Sea
TTITLE5=Lady Evil
TTITLE6=Black Sabbath
EXTD=
EXTT0=
EXTT1=
EXTT2=
EXTT3=
EXTT4=
EXTT5=
EXTT6=
PLAYORDER=
